<svg width="15" height="16" viewBox="0 0 15 16" fill="none" xmlns="http://www.w3.org/2000/svg">
<path d="M1.54167 1.83332V6.10103V6.08332V13.1667V1.83332ZM2.95833 8.91666H5.4375C5.54375 8.64513 5.67361 8.39131 5.82708 8.1552C5.98056 7.91909 6.15764 7.70068 6.35833 7.49999H2.95833V8.91666ZM2.95833 11.75H5.20729C5.14826 11.5139 5.1099 11.2778 5.09219 11.0417C5.07448 10.8055 5.07743 10.5694 5.10104 10.3333H2.95833V11.75ZM1.54167 14.5833C1.15208 14.5833 0.818576 14.4446 0.541146 14.1672C0.263715 13.8897 0.125 13.5562 0.125 13.1667V1.83332C0.125 1.44374 0.263715 1.11023 0.541146 0.832802C0.818576 0.555372 1.15208 0.416656 1.54167 0.416656H7.20833L11.4583 4.66666V6.43749C11.234 6.34305 11.0038 6.26926 10.7677 6.21614C10.5316 6.16301 10.2896 6.12464 10.0417 6.10103V5.37499H6.5V1.83332H1.54167V13.1667H5.80937C5.99826 13.45 6.21076 13.7127 6.44688 13.9547C6.68299 14.1967 6.94271 14.4062 7.22604 14.5833H1.54167ZM9.6875 12.4583C10.1833 12.4583 10.6024 12.2871 10.9448 11.9448C11.2872 11.6024 11.4583 11.1833 11.4583 10.6875C11.4583 10.1917 11.2872 9.77256 10.9448 9.4302C10.6024 9.08784 10.1833 8.91666 9.6875 8.91666C9.19167 8.91666 8.77257 9.08784 8.43021 9.4302C8.08785 9.77256 7.91667 10.1917 7.91667 10.6875C7.91667 11.1833 8.08785 11.6024 8.43021 11.9448C8.77257 12.2871 9.19167 12.4583 9.6875 12.4583ZM13.3 15.2917L11.3875 13.3792C11.1396 13.5444 10.871 13.6684 10.5818 13.751C10.2925 13.8337 9.99444 13.875 9.6875 13.875C8.80208 13.875 8.04948 13.5651 7.42969 12.9453C6.8099 12.3255 6.5 11.5729 6.5 10.6875C6.5 9.80207 6.8099 9.04947 7.42969 8.42968C8.04948 7.80989 8.80208 7.49999 9.6875 7.49999C10.5729 7.49999 11.3255 7.80989 11.9453 8.42968C12.5651 9.04947 12.875 9.80207 12.875 10.6875C12.875 10.9944 12.8337 11.2925 12.751 11.5818C12.6684 11.871 12.5444 12.1396 12.3792 12.3875L14.2917 14.3L13.3 15.2917Z" fill="black"/>
</svg>
