<svg width="24" height="20" viewBox="0 0 24 20" fill="none" xmlns="http://www.w3.org/2000/svg">
<g filter="url(#filter0_d_1_139)">
<path d="M6 16C5.45 16 4.97917 15.8042 4.5875 15.4125C4.19583 15.0208 4 14.55 4 14C4 13.45 4.19583 12.9792 4.5875 12.5875C4.97917 12.1958 5.45 12 6 12C6.55 12 7.02083 12.1958 7.4125 12.5875C7.80417 12.9792 8 13.45 8 14C8 14.55 7.80417 15.0208 7.4125 15.4125C7.02083 15.8042 6.55 16 6 16ZM12 16C11.45 16 10.9792 15.8042 10.5875 15.4125C10.1958 15.0208 10 14.55 10 14C10 13.45 10.1958 12.9792 10.5875 12.5875C10.9792 12.1958 11.45 12 12 12C12.55 12 13.0208 12.1958 13.4125 12.5875C13.8042 12.9792 14 13.45 14 14C14 14.55 13.8042 15.0208 13.4125 15.4125C13.0208 15.8042 12.55 16 12 16ZM18 16C17.45 16 16.9792 15.8042 16.5875 15.4125C16.1958 15.0208 16 14.55 16 14C16 13.45 16.1958 12.9792 16.5875 12.5875C16.9792 12.1958 17.45 12 18 12C18.55 12 19.0208 12.1958 19.4125 12.5875C19.8042 12.9792 20 13.45 20 14C20 14.55 19.8042 15.0208 19.4125 15.4125C19.0208 15.8042 18.55 16 18 16ZM6 10C5.45 10 4.97917 9.80417 4.5875 9.4125C4.19583 9.02083 4 8.55 4 8C4 7.45 4.19583 6.97917 4.5875 6.5875C4.97917 6.19583 5.45 6 6 6C6.55 6 7.02083 6.19583 7.4125 6.5875C7.80417 6.97917 8 7.45 8 8C8 8.55 7.80417 9.02083 7.4125 9.4125C7.02083 9.80417 6.55 10 6 10ZM12 10C11.45 10 10.9792 9.80417 10.5875 9.4125C10.1958 9.02083 10 8.55 10 8C10 7.45 10.1958 6.97917 10.5875 6.5875C10.9792 6.19583 11.45 6 12 6C12.55 6 13.0208 6.19583 13.4125 6.5875C13.8042 6.97917 14 7.45 14 8C14 8.55 13.8042 9.02083 13.4125 9.4125C13.0208 9.80417 12.55 10 12 10ZM18 10C17.45 10 16.9792 9.80417 16.5875 9.4125C16.1958 9.02083 16 8.55 16 8C16 7.45 16.1958 6.97917 16.5875 6.5875C16.9792 6.19583 17.45 6 18 6C18.55 6 19.0208 6.19583 19.4125 6.5875C19.8042 6.97917 20 7.45 20 8C20 8.55 19.8042 9.02083 19.4125 9.4125C19.0208 9.80417 18.55 10 18 10ZM6 4C5.45 4 4.97917 3.80417 4.5875 3.4125C4.19583 3.02083 4 2.55 4 2C4 1.45 4.19583 0.979167 4.5875 0.5875C4.97917 0.195833 5.45 0 6 0C6.55 0 7.02083 0.195833 7.4125 0.5875C7.80417 0.979167 8 1.45 8 2C8 2.55 7.80417 3.02083 7.4125 3.4125C7.02083 3.80417 6.55 4 6 4ZM12 4C11.45 4 10.9792 3.80417 10.5875 3.4125C10.1958 3.02083 10 2.55 10 2C10 1.45 10.1958 0.979167 10.5875 0.5875C10.9792 0.195833 11.45 0 12 0C12.55 0 13.0208 0.195833 13.4125 0.5875C13.8042 0.979167 14 1.45 14 2C14 2.55 13.8042 3.02083 13.4125 3.4125C13.0208 3.80417 12.55 4 12 4ZM18 4C17.45 4 16.9792 3.80417 16.5875 3.4125C16.1958 3.02083 16 2.55 16 2C16 1.45 16.1958 0.979167 16.5875 0.5875C16.9792 0.195833 17.45 0 18 0C18.55 0 19.0208 0.195833 19.4125 0.5875C19.8042 0.979167 20 1.45 20 2C20 2.55 19.8042 3.02083 19.4125 3.4125C19.0208 3.80417 18.55 4 18 4Z" fill="white"/>
</g>
<defs>
<filter id="filter0_d_1_139" x="0" y="0" width="24" height="24" filterUnits="userSpaceOnUse" color-interpolation-filters="sRGB">
<feFlood flood-opacity="0" result="BackgroundImageFix"/>
<feColorMatrix in="SourceAlpha" type="matrix" values="0 0 0 0 0 0 0 0 0 0 0 0 0 0 0 0 0 0 127 0" result="hardAlpha"/>
<feOffset dy="4"/>
<feGaussianBlur stdDeviation="2"/>
<feComposite in2="hardAlpha" operator="out"/>
<feColorMatrix type="matrix" values="0 0 0 0 0 0 0 0 0 0 0 0 0 0 0 0 0 0 0.25 0"/>
<feBlend mode="normal" in2="BackgroundImageFix" result="effect1_dropShadow_1_139"/>
<feBlend mode="normal" in="SourceGraphic" in2="effect1_dropShadow_1_139" result="shape"/>
</filter>
</defs>
</svg>
